<svg xmlns="http://www.w3.org/2000/svg" version="1.1" xmlns:xlink="http://www.w3.org/1999/xlink" xmlns:svgjs="http://svgjs.dev/svgjs" width="128" height="128" viewBox="0 0 128 128"><g transform="matrix(0.8046875,0,0,0.8046875,12.760752631578946,31.185726323476857)"><svg viewBox="0 0 95 61" data-background-color="#ffffff" preserveAspectRatio="xMidYMid meet" height="82" width="128" xmlns="http://www.w3.org/2000/svg" xmlns:xlink="http://www.w3.org/1999/xlink"><g id="tight-bounds" transform="matrix(1,0,0,1,-0.24049999999999727,-0.16447444159452118)"><svg viewBox="0 0 95.481 61.32894888318904" height="61.32894888318904" width="95.481"><g><svg viewBox="0 0 95.481 61.32894888318904" height="61.32894888318904" width="95.481"><g><svg viewBox="0 0 95.481 61.32894888318904" height="61.32894888318904" width="95.481"><g id="textblocktransform"><svg viewBox="0 0 95.481 61.32894888318904" height="61.32894888318904" width="95.481" id="textblock"><g><svg viewBox="0 0 95.481 61.32894888318904" height="61.32894888318904" width="95.481"><g><svg viewBox="0 0 95.481 61.32894888318904" height="61.32894888318904" width="95.481"><g><svg xmlns="http://www.w3.org/2000/svg" xmlns:xlink="http://www.w3.org/1999/xlink" version="1.0" x="0" y="0" viewBox="4.75 19.2627887 91.25 58.611311" enable-background="new 0 0 100 100" xml:space="preserve" height="61.32894888318904" width="95.481" class="icon-icon-0" data-fill-palette-color="accent" id="icon-0"><path d="M44.028 55.508l-0.355-7.048c0.522-0.333 1.095-0.619 1.665-0.904 4.706-2.949 7.275-6.751 7.701-11.412 0.191-2.14-0.046-4.232-0.759-6.182-0.096-0.285-0.191-0.523-0.332-0.76-0.379-0.904-0.857-1.807-1.428-2.616-0.142-0.142-0.237-0.333-0.286-0.475-0.571-0.809-1.235-1.569-1.949-2.283-0.427-0.428-0.855-0.856-1.285-1.236l-0.044 0.047c-0.049-0.047-0.049-0.095-0.049-0.094 0-0.048 0-0.048-0.047-0.096-0.286-0.237-0.573-0.475-0.81-0.664-0.999-0.904-2.091-1.666-3.185-2.332-0.049-0.047-0.145-0.095-0.238-0.143-0.048-0.047-0.048-0.047-0.096-0.047-1.234 0.761-2.378 1.618-3.47 2.522-0.237 0.189-0.475 0.427-0.714 0.664-0.048 0.048-0.095 0.048-0.094 0.096v-0.048c-0.049 0-0.049 0-0.049 0.048-1.283 1.142-2.376 2.33-3.282 3.566-0.095 0.142-0.19 0.333-0.284 0.475-0.62 0.809-1.095 1.665-1.473 2.568v0.048c-0.144 0.237-0.238 0.475-0.286 0.76-0.713 1.996-0.998 4.042-0.76 6.182 0.426 4.661 2.994 8.464 7.702 11.412 0.524 0.285 1.095 0.571 1.665 0.904 0.046 0.047 0.093 0.095 0.189 0.142 0.049 0 0.096 0 0.143 0.048l-0.233 7.146c-5.33 0.735-10.04 2.122-14.155 3.86l-0.209-4.348c0.333-0.191 0.712-0.381 1.095-0.619 3.089-1.95 4.802-4.47 5.133-7.561 0.144-1.426-0.047-2.805-0.522-4.089-0.048-0.19-0.144-0.379-0.191-0.523-0.238-0.618-0.57-1.188-0.95-1.76-0.097-0.095-0.144-0.19-0.191-0.285-0.381-0.523-0.808-1.046-1.331-1.521-0.286-0.286-0.57-0.571-0.809-0.809-0.048-0.047-0.048-0.047-0.097-0.047 0-0.048 0-0.048-0.045-0.047-0.144-0.142-0.333-0.286-0.524-0.429-0.665-0.618-1.38-1.142-2.092-1.569-0.047-0.049-0.095-0.049-0.142-0.095-0.048-0.047-0.048-0.047-0.095-0.047-0.809 0.523-1.57 1.094-2.283 1.711-0.19 0.142-0.382 0.286-0.523 0.429-0.048 0-0.048 0-0.048 0.047-0.855 0.76-1.569 1.568-2.187 2.377-0.049 0.095-0.142 0.189-0.189 0.285-0.43 0.571-0.762 1.142-1 1.712v0.048c-0.048 0.144-0.142 0.333-0.19 0.523-0.475 1.284-0.619 2.663-0.475 4.089 0.286 3.092 1.996 5.612 5.087 7.561 0.381 0.237 0.761 0.427 1.141 0.619 0 0.047 0.049 0.047 0.095 0.093 0.049 0 0.049 0 0.096 0.048L25.845 60.356C11.34 67.04 4.75 77.874 4.75 77.874 51.092 54.452 96 68.536 96 68.536 68.083 51.444 44.028 55.508 44.028 55.508z" fill="#daa520" data-fill-palette-color="accent"></path></svg></g></svg></g></svg></g></svg></g></svg></g></svg></g><defs></defs></svg><rect width="95.481" height="61.32894888318904" fill="none" stroke="none" visibility="hidden"></rect></g></svg></g></svg>