<svg xmlns="http://www.w3.org/2000/svg" version="1.1" xmlns:xlink="http://www.w3.org/1999/xlink" xmlns:svgjs="http://svgjs.dev/svgjs" width="2000" height="439" viewBox="0 0 2000 439"><g transform="matrix(1,0,0,1,-1.2121212121210192,1.0388771988446024)"><svg viewBox="0 0 396 87" data-background-color="#ffffff" preserveAspectRatio="xMidYMid meet" height="439" width="2000" xmlns="http://www.w3.org/2000/svg" xmlns:xlink="http://www.w3.org/1999/xlink"><g id="tight-bounds" transform="matrix(1,0,0,1,0.23999999999995225,-0.2058822694748983)"><svg viewBox="0 0 395.52 87.41176453894978" height="87.41176453894978" width="395.52"><g><svg viewBox="0 0 561.7080600459832 124.14010084033613" height="87.41176453894978" width="395.52"><g><svg viewBox="0 0 395.52 124.14010084033613" height="124.14010084033613" width="395.52"><g id="textblocktransform"><svg viewBox="0 0 395.52 124.14010084033613" height="124.14010084033613" width="395.52" id="textblock"><g><svg viewBox="0 0 395.52 124.14010084033613" height="124.14010084033613" width="395.52"><g transform="matrix(1,0,0,1,0,0)"><svg width="395.52" viewBox="1.5 -35.9 118.99 37.35" height="124.14010084033613" data-palette-color="#daa520"><path d="M19.2-22.25L19.2-22.25Q18.3-16.85 18.3-8.5L18.3-8.5Q18.3-2.35 18.8-0.4L18.8-0.4 19 0.25Q19 0.9 17.9 0.9L17.9 0.9Q14.05 0.9 13.5-1.25L13.5-1.25Q13.45-1.5 13.28-1.5 13.1-1.5 12.95-1.3L12.95-1.3Q11.4 0.75 8.15 0.75L8.15 0.75Q6.35 0.75 4.4-0.15L4.4-0.15Q3.2-0.7 2.45-2.08 1.7-3.45 1.7-5.45L1.7-5.45 2.45-16.4Q2.45-19.85 1.75-21.3L1.75-21.3Q1.5-21.85 1.5-22L1.5-22Q1.5-22.3 1.75-22.4L1.75-22.4Q2.55-22.65 3.8-22.65L3.8-22.65Q8.65-22.65 8.65-18.65L8.65-18.65Q8.65-17.4 7.63-12.95 6.6-8.5 6.6-6.63 6.6-4.75 7.43-3.75 8.25-2.75 9.73-2.75 11.2-2.75 12.05-3.8 12.9-4.85 13.05-5.9L13.05-5.9 13.2-6.95Q13.4-8.7 13.4-13.1 13.4-17.5 13.13-18.68 12.85-19.85 12.85-20.15L12.85-20.15Q12.85-21.4 14.85-22.13 16.85-22.85 18.45-22.85L18.45-22.85Q19.2-22.85 19.2-22.25ZM43.3-6.2L43.3-6.2Q43.3-2.7 41.07-1 38.85 0.7 34.85 0.7L34.85 0.7Q28.45 0.7 25.42-3.55 22.4-7.8 22.4-14.65L22.4-14.65Q22.4-15.75 22.5-17.85L22.5-17.85 19.7-17.85Q19.3-17.85 19.3-18.15L19.3-18.15Q19.3-19 20.15-20.2 21-21.4 22-21.4L22-21.4 22.95-21.4Q23.6-25 25.07-27.75 26.55-30.5 28.17-32 29.8-33.5 31.75-34.4L31.75-34.4Q34.85-35.9 38.25-35.9 41.65-35.9 42.5-34.8L42.5-34.8Q42.9-34.25 42.9-32.77 42.9-31.3 42.55-31.3L42.55-31.3Q42.5-31.3 42.1-31.5L42.1-31.5Q40.8-32.1 38.85-32.1L38.85-32.1Q34.6-32.1 32.22-29.1 29.85-26.1 29.05-21.4L29.05-21.4Q32.85-21.45 39.35-21.45L39.35-21.45Q39.85-21.45 39.85-21.1L39.85-21.1Q39.85-20.3 39.05-19.07 38.25-17.85 37.25-17.85L37.25-17.85 28.65-17.85Q28.6-17.25 28.6-15.23 28.6-13.2 29.32-10.98 30.05-8.75 32.02-7.2 34-5.65 37.15-5.65 40.3-5.65 42.45-7.05L42.45-7.05Q42.7-7.25 42.9-7.25L42.9-7.25Q43.3-7.25 43.3-6.2ZM60.7-6.85L60.7-6.85Q60.7-4.7 59.87-3.1 59.05-1.5 58-0.75 56.95 0 55.5 0.45L55.5 0.45Q53.6 1.05 52.05 1.05L52.05 1.05Q48.8 1.05 46.65-0.23 44.5-1.5 44.5-4.3L44.5-4.3Q44.5-5.95 45.4-7L45.4-7Q46.8-8.55 48.75-8.55L48.75-8.55Q49.35-8.55 49.35-8L49.35-8Q49.35-7.95 49.12-7.23 48.9-6.5 48.9-5.4 48.9-4.3 49.77-3.45 50.65-2.6 51.9-2.6 53.15-2.6 53.9-3.03 54.65-3.45 54.95-4.1L54.95-4.1Q55.4-5 55.4-5.8L55.4-5.8Q55.4-7.25 53.95-8.3 52.5-9.35 50.75-9.95 49-10.55 47.55-11.95 46.1-13.35 46.1-15.45L46.1-15.45Q46.1-19.05 48.37-20.85 50.65-22.65 54.55-22.65L54.55-22.65Q56.25-22.65 58.12-22.18 60-21.7 60-20.58 60-19.45 59.62-18.5 59.25-17.55 58.7-17.55L58.7-17.55Q58.4-17.55 58.3-17.78 58.2-18 57.95-18.3 57.7-18.6 56.75-19.07 55.8-19.55 55.12-19.55 54.45-19.55 54.22-19.53 54-19.5 53.45-19.38 52.9-19.25 52.45-19L52.45-19Q51.3-18.35 51.3-17.1L51.3-17.1Q51.3-16.3 51.65-15.93 52-15.55 52.2-15.35 52.4-15.15 52.9-14.88 53.4-14.6 53.6-14.5 53.8-14.4 54.5-14.08 55.2-13.75 55.4-13.65L55.4-13.65Q60.7-11.15 60.7-6.85ZM61.94-19.5L61.94-19.5 62.09-21.5Q62.14-21.95 62.79-21.95L62.79-21.95 64.54-21.95 64.34-25.95 64.34-26.15Q64.34-27.3 66.09-28.35 67.84-29.4 69.29-29.4L69.29-29.4Q69.74-29.4 69.74-29L69.74-29 69.74-28.95Q69.54-27.6 69.34-22L69.34-22Q71.54-22 72.14-22.1 72.74-22.2 72.79-22.2L72.79-22.2Q73.14-22.2 73.14-21.6 73.14-21 72.59-20.08 72.04-19.15 71.39-19.1L71.39-19.1 69.29-19.1Q69.24-17.4 69.24-13.38 69.24-9.35 69.32-6.75 69.39-4.15 69.49-2.83 69.59-1.5 69.72-0.7 69.84 0.1 69.92 0.45 69.99 0.8 69.99 0.9L69.99 0.9Q69.99 1.4 69.34 1.45L69.34 1.45Q67.39 1.45 65.47 0.9 63.54 0.35 63.54-1L63.54-1Q64.59-9.4 64.59-19.05L64.59-19.05Q63.24-19.05 62.54-18.95L62.54-18.95 62.49-18.95Q62.04-18.95 61.94-19.5ZM90.59-15L90.59-15 90.49-8.6Q90.49-1.95 91.94-0.6L91.94-0.6Q92.14-0.4 92.14-0.15L92.14-0.15Q92.14 0.6 88.92 0.6 85.69 0.6 85.49-1.3L85.49-1.3Q85.44-1.75 85.44-3.15L85.44-3.15 85.64-11.15Q85.64-11.5 85.24-11.5L85.24-11.5Q82.84-11.5 80.74-10.15 78.64-8.8 78.64-6.7L78.64-6.7Q78.64-5.6 79.24-4.85 79.84-4.1 80.72-4.1 81.59-4.1 82.17-4.45 82.74-4.8 82.84-4.85L82.84-4.85Q83.69-4.75 83.69-3.08 83.69-1.4 82.14-0.38 80.59 0.65 78.89 0.65 77.19 0.65 75.97 0.05 74.74-0.55 74.19-1.3 73.64-2.05 73.29-3L73.29-3Q72.94-4.15 72.94-5L72.94-5Q72.94-8.5 75.14-10.6 77.34-12.7 80.79-13.6L80.79-13.6Q85.34-14.5 85.54-15.25L85.54-15.25Q85.69-15.8 85.69-17.1L85.69-17.1Q85.69-19.75 82.99-19.75L82.99-19.75Q81.84-19.75 80.94-19.03 80.04-18.3 80.04-17.2L80.04-17.2 80.34-16Q80.24-15.15 78.54-15L78.54-15 77.99-14.95Q76.49-14.95 75.62-15.7 74.74-16.45 74.74-17.7L74.74-17.7Q74.74-18.5 75.27-19.48 75.79-20.45 76.59-21.05 77.39-21.65 79.07-22.13 80.74-22.6 82.29-22.6 83.84-22.6 84.69-22.5 85.54-22.4 87.02-22.03 88.49-21.65 89.47-20.6 90.44-19.55 90.52-18.38 90.59-17.2 90.59-15ZM92.89-19.5L92.89-19.5 93.04-21.5Q93.09-21.95 93.74-21.95L93.74-21.95 95.49-21.95 95.29-25.95 95.29-26.15Q95.29-27.3 97.04-28.35 98.79-29.4 100.24-29.4L100.24-29.4Q100.69-29.4 100.69-29L100.69-29 100.69-28.95Q100.49-27.6 100.29-22L100.29-22Q102.49-22 103.09-22.1 103.69-22.2 103.74-22.2L103.74-22.2Q104.09-22.2 104.09-21.6 104.09-21 103.54-20.08 102.99-19.15 102.34-19.1L102.34-19.1 100.24-19.1Q100.19-17.4 100.19-13.38 100.19-9.35 100.26-6.75 100.34-4.15 100.44-2.83 100.54-1.5 100.66-0.7 100.79 0.1 100.86 0.45 100.94 0.8 100.94 0.9L100.94 0.9Q100.94 1.4 100.29 1.45L100.29 1.45Q98.34 1.45 96.41 0.9 94.49 0.35 94.49-1L94.49-1Q95.54-9.4 95.54-19.05L95.54-19.05Q94.19-19.05 93.49-18.95L93.49-18.95 93.44-18.95Q92.99-18.95 92.89-19.5ZM109.09-12.7L109.09-12.7 109.14-11.45Q109.14-11.15 109.54-11.15L109.54-11.15Q111.14-11.3 112.34-11.98 113.54-12.65 114.14-13.5L114.14-13.5Q115.34-15.35 115.44-16.7L115.44-16.7 115.49-17.3Q115.49-20 113.34-20L113.34-20Q111.74-20 110.74-18.6L110.74-18.6Q109.09-16.4 109.09-12.7ZM119.99-6.05L119.99-6.05Q119.99-4.15 119.21-2.73 118.44-1.3 117.46-0.63 116.49 0.05 115.19 0.45L115.19 0.45Q113.54 0.95 112.04 0.95L112.04 0.95Q107.84 0.95 105.84-2.2 103.84-5.35 103.84-10.23 103.84-15.1 106.31-18.9 108.79-22.7 113.74-22.7L113.74-22.7Q118.24-22.7 119.84-19.55L119.84-19.55Q120.49-18.35 120.49-17.28 120.49-16.2 120.39-15.58 120.29-14.95 119.69-13.7 119.09-12.45 118.09-11.45 117.09-10.45 114.94-9.55 112.79-8.65 109.89-8.35L109.89-8.35Q109.49-8.35 109.49-8L109.49-8Q109.49-7.55 109.81-6.68 110.14-5.8 110.54-5.2L110.54-5.2Q111.64-3.8 113.79-3.8L113.79-3.8Q115.94-3.8 117.44-5.2L117.44-5.2Q118.24-5.95 118.74-7.05L118.74-7.05Q118.94-7.45 119.26-7.45 119.59-7.45 119.79-6.9 119.99-6.35 119.99-6.05Z" opacity="1" transform="matrix(1,0,0,1,0,0)" fill="#daa520" class="wordmark-text-0" data-fill-palette-color="primary" id="text-0"></path></svg></g></svg></g></svg></g></svg></g><g transform="matrix(1,0,0,1,424.8264984459832,18.109459860698152)"><svg viewBox="0 0 136.88156160000003 87.92118111893983" height="87.92118111893983" width="136.88156160000003"><g><svg xmlns="http://www.w3.org/2000/svg" xmlns:xlink="http://www.w3.org/1999/xlink" version="1.0" x="0" y="0" viewBox="4.75 19.2627887 91.25 58.611311" enable-background="new 0 0 100 100" xml:space="preserve" height="87.92118111893983" width="136.88156160000003" class="icon-icon-0" data-fill-palette-color="accent" id="icon-0"><path d="M44.028 55.508l-0.355-7.048c0.522-0.333 1.095-0.619 1.665-0.904 4.706-2.949 7.275-6.751 7.701-11.412 0.191-2.14-0.046-4.232-0.759-6.182-0.096-0.285-0.191-0.523-0.332-0.76-0.379-0.904-0.857-1.807-1.428-2.616-0.142-0.142-0.237-0.333-0.286-0.475-0.571-0.809-1.235-1.569-1.949-2.283-0.427-0.428-0.855-0.856-1.285-1.236l-0.044 0.047c-0.049-0.047-0.049-0.095-0.049-0.094 0-0.048 0-0.048-0.047-0.096-0.286-0.237-0.573-0.475-0.81-0.664-0.999-0.904-2.091-1.666-3.185-2.332-0.049-0.047-0.145-0.095-0.238-0.143-0.048-0.047-0.048-0.047-0.096-0.047-1.234 0.761-2.378 1.618-3.47 2.522-0.237 0.189-0.475 0.427-0.714 0.664-0.048 0.048-0.095 0.048-0.094 0.096v-0.048c-0.049 0-0.049 0-0.049 0.048-1.283 1.142-2.376 2.33-3.282 3.566-0.095 0.142-0.19 0.333-0.284 0.475-0.62 0.809-1.095 1.665-1.473 2.568v0.048c-0.144 0.237-0.238 0.475-0.286 0.76-0.713 1.996-0.998 4.042-0.76 6.182 0.426 4.661 2.994 8.464 7.702 11.412 0.524 0.285 1.095 0.571 1.665 0.904 0.046 0.047 0.093 0.095 0.189 0.142 0.049 0 0.096 0 0.143 0.048l-0.233 7.146c-5.33 0.735-10.04 2.122-14.155 3.86l-0.209-4.348c0.333-0.191 0.712-0.381 1.095-0.619 3.089-1.95 4.802-4.47 5.133-7.561 0.144-1.426-0.047-2.805-0.522-4.089-0.048-0.19-0.144-0.379-0.191-0.523-0.238-0.618-0.57-1.188-0.95-1.76-0.097-0.095-0.144-0.19-0.191-0.285-0.381-0.523-0.808-1.046-1.331-1.521-0.286-0.286-0.57-0.571-0.809-0.809-0.048-0.047-0.048-0.047-0.097-0.047 0-0.048 0-0.048-0.045-0.047-0.144-0.142-0.333-0.286-0.524-0.429-0.665-0.618-1.38-1.142-2.092-1.569-0.047-0.049-0.095-0.049-0.142-0.095-0.048-0.047-0.048-0.047-0.095-0.047-0.809 0.523-1.57 1.094-2.283 1.711-0.19 0.142-0.382 0.286-0.523 0.429-0.048 0-0.048 0-0.048 0.047-0.855 0.76-1.569 1.568-2.187 2.377-0.049 0.095-0.142 0.189-0.189 0.285-0.43 0.571-0.762 1.142-1 1.712v0.048c-0.048 0.144-0.142 0.333-0.19 0.523-0.475 1.284-0.619 2.663-0.475 4.089 0.286 3.092 1.996 5.612 5.087 7.561 0.381 0.237 0.761 0.427 1.141 0.619 0 0.047 0.049 0.047 0.095 0.093 0.049 0 0.049 0 0.096 0.048L25.845 60.356C11.34 67.04 4.75 77.874 4.75 77.874 51.092 54.452 96 68.536 96 68.536 68.083 51.444 44.028 55.508 44.028 55.508z" fill="#daa520" data-fill-palette-color="accent"></path></svg></g></svg></g></svg></g><defs></defs></svg><rect width="395.52" height="87.41176453894978" fill="none" stroke="none" visibility="hidden"></rect></g></svg></g></svg>